<svg xmlns="http://www.w3.org/2000/svg" viewBox="0 0 100 100">
  <defs>
    <linearGradient id="g" x1="0%" y1="0%" x2="100%" y2="100%">
      <stop offset="0%" stop-color="#f5a623"/>
      <stop offset="100%" stop-color="#e88d0c"/>
    </linearGradient>
    <linearGradient id="shine" x1="0%" y1="0%" x2="100%" y2="100%">
      <stop offset="0%" stop-color="#fff" stop-opacity="0.9"/>
      <stop offset="100%" stop-color="#fbbf24"/>
    </linearGradient>
  </defs>
  <!-- Background -->
  <rect width="100" height="100" rx="20" fill="#1f2937"/>
  <!-- Film reel -->
  <circle cx="50" cy="50" r="32" fill="url(#g)"/>
  <!-- Center hole -->
  <circle cx="50" cy="50" r="10" fill="#1f2937"/>
  <!-- Sprocket holes -->
  <circle cx="50" cy="25" r="5" fill="#1f2937"/>
  <circle cx="50" cy="75" r="5" fill="#1f2937"/>
  <circle cx="25" cy="50" r="5" fill="#1f2937"/>
  <circle cx="75" cy="50" r="5" fill="#1f2937"/>
  <circle cx="32" cy="32" r="4" fill="#1f2937"/>
  <circle cx="68" cy="68" r="4" fill="#1f2937"/>
  <circle cx="32" cy="68" r="4" fill="#1f2937"/>
  <circle cx="68" cy="32" r="4" fill="#1f2937"/>
  <!-- Sparkle/polish effect -->
  <path d="M78 18l4 4M80 16v8M76 20h8" stroke="url(#shine)" stroke-width="3" stroke-linecap="round"/>
  <path d="M88 28l2 2M89 26v4M87 28h4" stroke="#fbbf24" stroke-width="2" stroke-linecap="round"/>
</svg>
